<?xml version="1.0" standalone="no"?>
<!DOCTYPE svg PUBLIC "-//W3C//DTD SVG 1.1//EN" "http://www.w3.org/Graphics/SVG/1.1/DTD/svg11.dtd" >
<!--
2013-9-30: Created.
-->
<svg>
<metadata>
Created by iconfont
</metadata>
<defs>

<font id="iconfont" horiz-adv-x="1024" >
  <font-face
    font-family="iconfont"
    font-weight="500"
    font-stretch="normal"
    units-per-em="1024"
    ascent="896"
    descent="-128"
  />
    <missing-glyph />
    
    <glyph glyph-name="order" unicode="&#58902;" d="M925.123 400.368c-3.433 72.721-33.12 137.152-85.851 186.325-48.459 45.189-115.317 76.594-193.35 90.82-15.958 2.903-31.427-7.101-35.312-22.85-6.109-24.769-32.605-42.747-63.001-42.747-30.393 0-56.886 17.976-62.991 42.743-3.882 15.753-19.352 25.762-35.313 22.855-78.034-14.227-144.896-45.631-193.356-90.82-52.733-49.174-82.42-113.604-85.851-186.327-0.395-8.383 2.659-16.564 8.453-22.637 5.793-6.073 13.82-9.509 22.213-9.509h111.779v-218.941c0-45.096 36.691-81.785 81.79-81.785h306.552c45.098 0 81.79 36.689 81.79 81.785v218.941h111.784c8.393 0 16.42 3.436 22.214 9.51 5.794 6.073 8.848 14.254 8.451 22.637zM782.674 429.621v21.056c0 16.954-13.745 30.699-30.699 30.699s-30.699-13.745-30.699-30.699v-301.395c0-11.241-9.147-20.386-20.391-20.386h-306.552c-11.244 0-20.391 9.145-20.391 20.386v301.395c0 16.954-13.745 30.699-30.699 30.699s-30.699-13.745-30.699-30.699v-21.056h-77.268c17.499 89.457 90.039 155.58 200.989 182.405 8.141-14.18 19.507-26.786 33.409-36.821 22.052-15.92 49.732-24.686 77.936-24.686 28.206 0 55.886 8.767 77.94 24.686 13.904 10.035 25.27 22.641 33.412 36.822 110.945-26.825 183.484-92.947 200.985-182.405h-77.271z"  horiz-adv-x="1024" />

    
    <glyph glyph-name="friends" unicode="&#58904;" d="M921.465231 556.664501c-22.36845 52.884464-54.385655 100.376105-95.164407 141.153834-40.778752 40.778752-88.269369 72.79698-141.153834 95.16543-54.763255 23.162536-112.924909 34.907021-172.868139 34.907021s-118.104885-11.744485-172.867116-34.907021c-52.885488-22.36845-100.376105-54.386678-141.153834-95.16543-40.777729-40.777729-72.795956-88.269369-95.164407-141.153834C79.928912 501.901247 68.184427 443.739593 68.184427 383.79636200000004c0-59.94323 11.744485-118.104885 34.907021-172.867116 22.36845-52.885488 54.386678-100.376105 95.164407-141.153834 40.778752-40.778752 88.269369-72.795956 141.153834-95.164407 54.763255-23.162536 112.923886-34.907021 172.867116-34.907021s118.103862 11.745509 172.868139 34.907021c52.885488 22.36845 100.376105 54.385655 141.153834 95.164407s72.795956 88.269369 95.164407 141.153834c23.162536 54.763255 34.907021 112.924909 34.907021 172.867116C956.372252 443.739593 944.626743 501.901247 921.465231 556.664501zM512.277828-19.36479099999997c-222.304062 0-403.161153 180.857091-403.161153 403.161153 0 222.304062 180.857091 403.161153 403.161153 403.161153 222.304062 0 403.161153-180.857091 403.161153-403.161153C915.440004 161.4923 734.582913-19.36479099999997 512.277828-19.36479099999997zM626.175237 334.31503c6.427642-5.136517 16.708672-2.565261 21.850186 5.146511 2.570257 3.854387 2.570257 7.707774 2.570257 11.566158-1.285129 3.853387-3.858384 7.707774-6.426643 10.283028-8.994901 5.136517-17.9938 11.562161-28.276828 15.420545 12.854285 12.851287 23.137313 26.988702 29.562956 43.699372 7.711771 17.989803 11.568157 37.268532 11.568157 57.829592 0 79.683774-64.26323 143.942007-143.944006 143.942007-79.681776 0-142.65488-65.54536-142.65488-145.227136 0-38.55466 15.423543-74.541261 42.412045-101.531961-83.53916-38.551862-137.515365-122.091022-137.515365-214.623885 0-8.994901 6.424044-15.425541 15.420945-15.425541 8.995301 0 15.422544 6.43064 15.422544 15.425541 0 86.109418 53.979202 163.217938 133.659579 192.779695 44.981503-26.9907 102.81709-25.70757 146.512265 0C600.472863 348.45724199999995 614.609079 342.026802 626.175237 334.31503L626.175237 334.31503zM624.890109 476.974907c0-15.422544-2.567259-30.842089-8.997899-44.982302-5.138516-12.850288-14.135416-24.416446-24.414447-34.697275-20.567056-20.564058-48.840686-32.130216-78.398646-32.130216-61.689974 0-111.811991 50.122817-111.811991 111.809993 0 61.688975 50.122017 111.81399 111.811991 111.81399C574.771289 588.788697 624.890109 538.6638820000001 624.890109 476.974907L624.890109 476.974907zM745.698001 234.07419400000003l-59.117718 59.117718c-6.425643 6.429641-17.9938 6.429641-24.418444 0-2.570257-2.571257-5.141514-7.705775-5.141514-11.566158 0-5.140515 1.285129-8.994901 5.141514-11.565159l30.845087-30.844088L586.336448 239.21650699999998c-8.995901 0-16.707672-7.71377-16.707672-16.708672 0-9.000897 7.711771-16.707672 16.707672-16.707672l106.670477 0-30.845087-30.843888c-2.570257-2.571257-5.138516-7.71377-5.138516-11.566158 0-5.142513 1.286128-9.000897 5.138516-11.566158 2.571257-3.859383 7.709773-5.142513 11.567157-5.142513 3.856385 0 8.994901 1.28313 11.566158 5.142513l59.117718 59.117718c1.285129 1.28313 2.571257 3.854387 3.858384 5.141514 1.282131 3.853387 1.282131 8.995901 0 12.848289C748.271256 230.22080600000004 746.984129 232.791064 745.698001 234.07419400000003L745.698001 234.07419400000003z"  horiz-adv-x="1024" />

    
    <glyph glyph-name="qianjinxiayige" unicode="&#59396;" d="M695.04 375.68l-318.08 320c-12.8 12.8-33.28 12.8-45.44 0-12.8-12.8-12.8-33.28 0-45.44l293.12-295.04-303.36-298.88c-12.8-12.8-12.8-33.28 0-45.44 12.8-12.8 33.28-12.8 46.08 0l318.72 314.24C699.52 336.64 712.32 357.12 695.04 375.68z"  horiz-adv-x="1024" />

    
    <glyph glyph-name="cash" unicode="&#58891;" d="M529.653796 120.21519799999999L65.307073 120.21519799999999 65.307073 345.008964l14.387266-0.924045c0.264024-0.00921 28.546325-1.479701 43.823904 12.93459 6.585252 6.215562 9.791405 14.650675 9.791405 25.797549 0 15.58393-4.165031 26.933419-12.7233 34.691103-15.911033 14.394848-42.353351 11.982916-42.617375 11.938913l-14.863123-1.479701-0.053214 14.933107L63.052635 652.163529l466.610372 0 0-27.048029L90.102823 625.1155l0-168.716586c13.375173-0.968048 33.142186-4.922103 48.454559-18.683525 14.467087-12.995989 21.80143-31.459502 21.80143-54.898331 0-18.798135-6.190239-34.135448-18.402888-45.590338-15.048349-14.105253-35.836664-18.48091-49.599687-19.74981l0-170.213683 437.297559 0L529.653796 120.21519799999999zM958.691904 120.21519799999999L494.34518 120.21519799999999l0 27.048029 437.297559 0L931.642739 317.794136c-12.07245 1.52268-29.462222 5.960759-42.748364 18.534122-12.397875 11.727089-18.684309 27.682479-18.684309 47.431266 0 24.609491 7.440772 43.601031 22.110482 56.446593 13.38336 11.728112 29.814254 15.338337 41.577653 16.263405L933.898201 625.114476 494.336994 625.114476 494.336994 652.163529l466.610372 0 0-224.705761-15.31135 2.034333c-0.141222 0.017396-21.785057 2.509147-35.616644-9.746992-8.471284-7.484462-12.759117-19.590174-12.759117-35.984562 0-12.133342 3.310535-21.192671 10.12604-27.690666 13.559376-12.93459 36.84978-12.009522 37.087197-11.974729l14.158035 0.669242 0.061401-14.175861L958.692927 120.21519799999999zM284.695734 214.51388799999995c0-7.624654-6.181029-13.805424-13.796793-13.805424-7.624975 0-13.807027 6.180769-13.807027 13.805424s6.182052 13.806447 13.807027 13.806447C278.514705 228.320335 284.695734 222.13956499999995 284.695734 214.51388799999995zM284.695734 281.53634999999997c0-7.624654-6.181029-13.805424-13.796793-13.805424-7.624975 0-13.807027 6.180769-13.807027 13.805424s6.182052 13.806447 13.807027 13.806447C278.514705 295.342798 284.695734 289.16100500000005 284.695734 281.53634999999997zM284.695734 348.55778999999995c0-7.624654-6.181029-13.805424-13.796793-13.805424-7.624975 0-13.807027 6.180769-13.807027 13.805424s6.182052 13.806447 13.807027 13.806447C278.514705 362.364237 284.695734 356.18244400000003 284.695734 348.55778999999995zM284.695734 482.592482c0-7.624654-6.181029-13.805424-13.796793-13.805424-7.624975 0-13.807027 6.180769-13.807027 13.805424 0 7.624654 6.182052 13.806447 13.807027 13.806447C278.514705 496.39893 284.695734 490.217137 284.695734 482.592482zM284.695734 549.613922c0-7.624654-6.181029-13.805424-13.796793-13.805424-7.624975 0-13.807027 6.180769-13.807027 13.805424s6.182052 13.806447 13.807027 13.806447C278.514705 563.4203689999999 284.695734 557.2396 284.695734 549.613922zM785.380562 214.51388799999995c0-7.624654-6.181029-13.805424-13.797817-13.805424-7.624975 0-13.806003 6.180769-13.806003 13.805424s6.181029 13.806447 13.806003 13.806447C779.200556 228.320335 785.380562 222.13956499999995 785.380562 214.51388799999995zM785.380562 281.53634999999997c0-7.624654-6.181029-13.805424-13.797817-13.805424-7.624975 0-13.806003 6.180769-13.806003 13.805424s6.181029 13.806447 13.806003 13.806447C779.200556 295.342798 785.380562 289.16100500000005 785.380562 281.53634999999997zM785.380562 348.55778999999995c0-7.624654-6.181029-13.805424-13.797817-13.805424-7.624975 0-13.806003 6.180769-13.806003 13.805424s6.181029 13.806447 13.806003 13.806447C779.200556 362.364237 785.380562 356.18244400000003 785.380562 348.55778999999995zM785.380562 415.571043c0-7.624654-6.181029-13.805424-13.797817-13.805424-7.624975 0-13.806003 6.180769-13.806003 13.805424 0 7.624654 6.181029 13.806447 13.806003 13.806447C779.200556 429.37749 785.380562 423.195697 785.380562 415.571043zM284.695734 415.571043c0-7.624654-6.181029-13.805424-13.797817-13.805424-7.624975 0-13.806003 6.180769-13.806003 13.805424 0 7.624654 6.181029 13.806447 13.806003 13.806447C278.514705 429.37749 284.695734 423.195697 284.695734 415.571043zM785.380562 482.592482c0-7.624654-6.181029-13.805424-13.797817-13.805424-7.624975 0-13.806003 6.180769-13.806003 13.805424 0 7.624654 6.181029 13.806447 13.806003 13.806447C779.200556 496.39893 785.380562 490.217137 785.380562 482.592482zM785.380562 549.613922c0-7.624654-6.181029-13.805424-13.797817-13.805424-7.624975 0-13.806003 6.180769-13.806003 13.805424s6.181029 13.806447 13.806003 13.806447C779.200556 563.4203689999999 785.380562 557.2396 785.380562 549.613922zM565.984738 365.909993L635.366787 365.909993 635.480378 411.66099 589.727461 411.66099 664.393062 549.2025530000001 586.353479 549.2025530000001 534.952698 435.368948 513.276116 435.27071 460.687227 549.2025530000001 382.652761 549.2025530000001 456.926419 411.66099 410.596333 411.66099 410.596333 365.880317 479.477964 365.880317 486.207508 351.91730399999994 486.207508 329.73611900000003 410.596333 329.73611900000003 410.596333 283.972842 486.207508 283.972842 486.207508 217.498872 559.377996 217.498872 559.377996 283.972842 635.480378 283.972842 635.474238 329.73611900000003 559.396416 329.73611900000003 559.396416 351.91730399999994Z"  horiz-adv-x="1024" />

    
    <glyph glyph-name="iconfontseacher" unicode="&#58945;" d="M990.4 29.76l-215.36 203.2c47.04 69.12 72.96 151.68 72.96 237.44C848 703.36 658.56 892.8 425.6 892.8S3.2 703.36 3.2 470.4s189.44-422.4 422.4-422.4c36.48 0 72.64 4.48 107.52 13.76l-19.52 74.24c-28.48-7.36-58.24-11.2-88-11.2-190.72 0-345.6 154.88-345.6 345.6C80 661.12 234.88 816 425.6 816c190.72 0 345.6-154.88 345.6-345.6 0-102.4-45.12-199.04-123.84-264.96l49.28-58.88c10.24 8.64 20.16 17.6 29.44 27.2l211.52-199.68c15.36-14.4 39.68-13.76 54.4 1.6l0 0C1006.4-8.96 1005.76 15.36 990.4 29.76z"  horiz-adv-x="1024" />

    
    <glyph glyph-name="set" unicode="&#58890;" d="M512 198.39999999999998c102.4 0 182.4 83.2 182.4 185.6 0 102.4-83.2 185.6-182.4 185.6-102.4 0-182.4-83.2-182.4-185.6 0-102.4 83.2-185.6 182.4-185.6z m0 51.2c-73.6 0-134.4 60.8-134.4 134.4 0 73.6 60.8 134.4 134.4 134.4 73.6 0 134.4-60.8 134.4-134.4 0-73.6-60.8-134.4-134.4-134.4zM249.015 52.821000000000026c35.2-28.8 73.6-51.2 112-67.2 41.6 38.4 96 60.8 150.4 60.8 57.6 0 108.8-22.4 150.4-60.8 41.6 16 80 38.4 112 67.2-12.8 54.4-3.2 112 22.4 163.2 28.8 48 73.6 86.4 128 102.4 3.2 22.4 6.4 44.8 6.4 67.2 0 22.4-3.2 44.8-6.4 67.2-54.4 16-99.2 54.4-128 102.4-28.8 48-35.2 108.8-22.4 163.2-35.2 28.8-73.6 51.2-112 67.2-41.6-38.4-92.8-60.8-150.4-60.8-54.4 0-108.8 22.4-150.4 60.8-41.6-16-80-38.4-112-67.2 12.8-54.4 3.2-112-22.4-163.2-28.8-48-73.6-86.4-128-102.4-3.2-22.4-6.4-44.8-6.4-67.2 0-22.4 3.2-44.8 6.4-67.2 54.4-16 99.2-54.4 128-102.4 25.6-51.2 35.2-108.8 22.4-163.2m112-115.2c-54.4 19.2-105.6 48-150.4 89.6-6.4 6.4-9.6 16-6.4 22.4 16 48 9.6 99.2-16 140.8-25.6 44.8-64 73.6-112 83.2-9.6 3.2-16 9.6-16 19.2-6.4 28.8-9.6 60.8-9.6 89.6 0 28.8 3.2 57.6 9.6 89.6 3.2 9.6 9.6 16 16 19.2 48 12.8 89.6 41.6 112 83.2 25.6 44.8 28.8 92.8 16 140.8-3.2 9.6 0 19.2 6.4 22.4 44.8 38.4 96 67.2 150.4 89.6 9.6 3.2 16 0 22.4-6.4 35.2-35.2 80-57.6 128-57.6s96 19.2 128 57.6c6.4 6.4 16 9.6 22.4 6.4 54.4-19.2 105.6-48 150.4-89.6 6.4-6.4 9.6-16 6.4-22.4-16-48-9.6-99.2 16-140.8 25.6-44.8 64-73.6 112-83.2 9.6-3.2 16-9.6 16-19.2 6.4-28.8 9.6-60.8 9.6-89.6 0-28.8-3.2-57.6-9.6-89.6-3.2-9.6-9.6-16-16-19.2-48-12.8-89.6-41.6-112-83.2-25.6-44.8-28.8-92.8-16-140.8 3.2-9.6 0-19.2-6.4-22.4-44.8-38.4-96-67.2-150.4-89.6-9.6-3.2-16 0-22.4 6.4-35.2 35.2-80 57.6-128 57.6s-96-19.2-128-57.6c-3.2-3.2-9.6-6.4-16-6.4h-6.4z"  horiz-adv-x="1024" />

    
    <glyph glyph-name="pinpai" unicode="&#59002;" d="M411.776494 91.928894c7.658822-7.658822 17.862156-11.877248 28.731533-11.877247 10.868474 0 21.071808 4.217071 28.731533 11.877247l362.173644 362.176354c12.936595 12.934338 19.345965 35.262823 15.239977 53.089757l-44.695352 194.062025c-4.227908 18.348029-21.251075 35.369841-39.598652 39.594137l-194.050285 44.670516c-3.518516 0.810993-7.276807 1.221004-11.171468 1.221005-15.462593 0-31.916349-6.461299-41.916032-16.460981l-362.165516-362.158743c-15.843254-15.841899-15.843254-41.620264-0.001354-57.464421l258.721972-258.729649z m132.178689 649.620377c2.155723 2.155723 8.100894 4.560253 13.184499 4.560252 1.08915 0 1.755194-0.116953 2.055478-0.186492l194.050285-44.670517c3.323895-0.764934 8.351959-5.792997 9.117796-9.116892l44.6949-194.062026c0.932461-4.044125-1.439105-12.302612-4.37376-15.237719L440.562214 120.689327a0.238421 0.238421 0 0 0-0.054187-0.00587v-0.023481l-258.690363 258.676365c-0.007225 0.019868-0.008128 0.061411-0.019869 0.061412-0.001355 0-0.003612 0-0.010386-0.007225l362.167774 362.158743zM711.452687 597.27433c14.671921 14.661083 14.662438 38.429577 0 53.071695-14.631732 14.642118-38.389388 14.642118-53.051826-0.018965-14.651601-14.62225-14.641215-38.390743 0-53.032861 14.652052-14.661986 38.409708-14.661986 53.051826-0.019869zM447.691814 4.534514c-3.962394-3.959685-10.406082-3.959685-14.367573 0l-273.08503 273.077353-14.366669-14.366218 273.086384-273.076902c5.941559-5.940656 13.74533-8.910532 21.549101-8.910532s15.606639 2.970779 21.549102 8.911887l376.542571 376.541668-14.366669 14.36667-376.541217-376.543926z"  horiz-adv-x="1024" />

    
    <glyph glyph-name="code" unicode="&#58909;" d="M512 871.02439c55.096195 0 99.902439-44.806244 99.902439-99.902439v-199.804878c0-55.096195-44.806244-99.902439-99.902439-99.902439s-99.902439 44.806244-99.902439 99.902439V771.121951c0 55.096195 44.806244 99.902439 99.902439 99.902439m0 24.97561a124.878049 124.878049 0 0 1-124.878049-124.878049v-199.804878a124.878049 124.878049 0 0 1 249.756098 0V771.121951a124.878049 124.878049 0 0 1-124.878049 124.878049zM724.292683 271.60975599999995h-449.560976a12.487805 12.487805 0 0 0 0 24.97561h449.560976a12.487805 12.487805 0 0 0 0-24.97561z m-449.560976-149.853658h449.560976a12.487805 12.487805 0 0 0 0-24.97561h-449.560976a12.487805 12.487805 0 0 0 0 24.97561zM911.609756 671.219512H613.251122l-0.874146 24.97561H911.609756a99.902439 99.902439 0 0 0 99.902439-99.902439v-624.390244a99.902439 99.902439 0 0 0-99.902439-99.902439H112.390244a99.902439 99.902439 0 0 0-99.902439 99.902439V596.292683a99.902439 99.902439 0 0 0 99.902439 99.902439h300.106927l-0.874147-24.97561H112.390244c-41.309659 0-74.926829-33.617171-74.926829-74.926829v-624.390244c0-41.309659 33.617171-74.926829 74.926829-74.926829h799.219512c41.309659 0 74.926829 33.617171 74.926829 74.926829V596.292683c0 41.309659-33.617171 74.926829-74.926829 74.926829"  horiz-adv-x="1024" />

    
    <glyph glyph-name="search" unicode="&#58882;" d="M1012-51.51999999999998L717.12 243.36a390.56 390.56 0 1 1-65.76-69.92L944-119.20000000000005z m-912 525.28a302.72 302.72 0 1 0 302.4-302.72A303.04 303.04 0 0 0 99.84 473.76z"  horiz-adv-x="1024" />

    
    <glyph glyph-name="category" unicode="&#59245;" d="M363.190813 773.334239h-230.632751c-37.151132 0-67.268056-30.116925-67.268057-67.268056v-230.632751c0-37.151132 30.116925-67.268056 67.268057-67.268056h230.632751c37.152155 0 67.268056 30.116925 67.268056 67.268056v230.632751c0 37.151132-30.115901 67.268056-67.268056 67.268056z m0-297.900807h-230.632751v230.632751h230.632751v-230.632751zM363.190813 312.068737h-230.632751c-37.151132 0-67.268056-30.116925-67.268057-67.268056v-230.632751c0-37.151132 30.116925-67.268056 67.268057-67.268056h230.632751c37.152155 0 67.268056 30.116925 67.268056 67.268056v230.632751c0 37.151132-30.115901 67.268056-67.268056 67.268056z m0-297.900807h-230.632751v230.632751h230.632751v-230.632751zM843.676052 312.068737h-230.632751c-37.151132 0-67.268056-30.116925-67.268057-67.268056v-230.632751c0-37.151132 30.116925-67.268056 67.268057-67.268056h230.632751c37.152155 0 67.268056 30.116925 67.268056 67.268056v230.632751c-0.001023 37.151132-30.116925 67.268056-67.268056 67.268056z m0-297.900807h-230.632751v230.632751h230.632751v-230.632751zM939.006234 638.31615L775.923972 801.397389c-13.135158 13.135158-30.349215 19.702738-47.565319 19.702737-17.21508 0-34.43016-6.567579-47.565319-19.702737L517.712095 638.31615a67.270103 67.270103 0 0 1 0-95.131661l163.082262-163.082262c13.135158-13.135158 30.350239-19.702738 47.565319-19.702738 17.216103 0 34.43016 6.567579 47.566342 19.702738l163.082262 163.082262a67.267033 67.267033 0 0 1-0.002046 95.131661zM728.359676 427.667545L565.277414 590.749808l163.082262 163.082262 163.082262-163.082262-163.082262-163.082263z"  horiz-adv-x="1024" />

    
    <glyph glyph-name="xing" unicode="&#58967;" d="M290.909091 25.6c-5.171717 0-9.955556 2.327273-13.317172 6.206061-3.361616 3.878788-4.654545 9.050505-3.878788 14.222222l40.59798 236.864646L142.222222 450.456566c-4.783838 4.654545-6.464646 11.507071-4.395959 17.842424s7.49899 10.860606 14.092929 11.894949l237.769697 34.521213 106.278788 215.531313c2.973737 5.947475 9.050505 9.69697 15.644444 9.696969s12.670707-3.749495 15.644445-9.696969L633.535354 514.715152l237.898989-34.521213c6.593939-0.905051 12.024242-5.559596 14.09293-11.894949 2.068687-6.335354 0.387879-13.187879-4.39596-17.842424L709.042424 282.763636l40.59798-236.864646c1.163636-6.593939-1.551515-13.187879-6.981818-17.066667s-12.412121-4.39596-18.359596-1.292929l-212.686869 111.838384-212.686868-111.838384c-2.456566-1.292929-5.171717-1.939394-8.016162-1.939394zM191.870707 450.844444L345.212121 301.381818c4.137374-4.008081 5.947475-9.826263 5.042424-15.385858l-36.20202-211.006061 189.543435 99.555556c5.042424 2.715152 11.119192 2.715152 16.161616 0l189.543434-99.684849-36.20202 211.006061c-0.905051 5.688889 0.905051 11.377778 5.042424 15.385858l153.341414 149.462627-211.911111 30.771717c-5.688889 0.775758-10.60202 4.39596-13.058586 9.567676l-94.771717 192-94.771717-192c-2.585859-5.171717-7.49899-8.662626-13.058586-9.567676l-212.040404-30.642425z m0 0"  horiz-adv-x="1024" />

    
    <glyph glyph-name="weixin" unicode="&#59092;" d="M199.6 152.7c-5.8 0-11.5 2-16.1 5.8-7.9 6.6-10.9 17.4-7.6 27.2l23.7 69.9c-31.4 23.5-57.5 52.2-76.3 84-22.9 38.8-35 82.4-35 126.3 0 38.1 8.7 74.9 26 109.6 16.5 33.2 40 62.9 69.9 88.3 60.7 51.6 141.1 80.1 226.5 80.1 155 0 288.2-95.1 316.8-226.2L678.7 507c-11.2 51.2-43.6 98.2-91.3 132.3-49.2 35.2-111.9 54.5-176.6 54.5-150.2 0-272.5-102.3-272.5-228 0-35.4 9.4-69.3 28.1-100.8 18-30.5 44.5-57.8 76.7-78.8 9.5-6.2 13.6-18.1 10-28.9l-9.1-26.8 42.1 23.1c6.2 3.4 13.6 4 20.3 1.7 33.2-11.6 68.3-17.4 104.5-17.4 7.1 0 14.2 0.2 21.2 0.7l3.2-49.9c-8.1-0.5-16.3-0.8-24.5-0.8-37.9 0-75 5.6-110.2 16.7l-88.9-48.7c-3.8-2.2-8-3.2-12.1-3.2zM500.8 549.8m-37.1 0a37.1 37.1 0 1 1 74.2 0 37.1 37.1 0 1 1-74.2 0ZM305.2 549.8m-37.1 0a37.1 37.1 0 1 1 74.2 0 37.1 37.1 0 1 1-74.2 0ZM845 20.4c-4.1 0-8.2 1-12 3.1l-77 42.2c-25.9-6.7-52.7-10.1-80-10.1-73 0-141.8 24.3-193.8 68.3-25.7 21.8-45.9 47.2-60 75.6-14.8 29.8-22.4 61.4-22.4 94s7.5 64.3 22.4 94c14.2 28.4 34.4 53.8 60 75.6 51.9 44 120.8 68.3 193.8 68.3s141.8-24.3 193.8-68.3c25.7-21.8 45.9-47.2 60-75.6 14.8-29.7 22.4-61.4 22.4-94 0-72.1-37.8-139.9-102.2-184.9l18.7-55.2c3.3-9.8 0.3-20.6-7.6-27.2-4.7-3.8-10.4-5.8-16.1-5.8z m-85.9 97.1c4.2 0 8.3-1 12-3.1l29.5-16.2-4.3 12.8c-3.8 11.2 0.8 23.5 10.9 29.5 29 17.2 53 40.2 69.5 66.4 16.9 26.9 25.5 56 25.5 86.6 0 103.6-101.4 187.9-226.1 187.9-124.7 0-226.1-84.3-226.1-187.9s101.3-187.9 226-187.9c26 0 51.6 3.7 76 10.9 2.3 0.7 4.7 1 7.1 1zM597.6 359.2m-35.2 0a35.2 35.2 0 1 1 70.4 0 35.2 35.2 0 1 1-70.4 0ZM761.2 359.2m-35.2 0a35.2 35.2 0 1 1 70.4 0 35.2 35.2 0 1 1-70.4 0Z"  horiz-adv-x="1024" />

    
    <glyph glyph-name="tobe-apply" unicode="&#58881;" d="M504.685714 874.057143c-266.24 0-482.742857-219.428571-482.742857-490.057143s216.502857-490.057143 482.742857-490.057143c209.188571 0 387.657143 134.582857 453.485715 323.291429 1.462857 2.925714 1.462857 7.314286 1.462857 10.24 0 17.554286-13.165714 32.182857-30.72 32.182857-21.942857 0-30.72-27.794286-30.72-27.794286-59.977143-163.84-215.04-279.405714-394.971429-279.405714-234.057143 0-422.765714 193.097143-422.765714 431.542857S269.165714 815.542857 503.222857 815.542857c234.057143 0 422.765714-185.782857 422.765714-424.228571v-11.702857c0-17.554286 13.165714-33.645714 30.72-33.645715 17.554286 0 30.72 11.702857 30.72 29.257143v11.702857c0 272.091429-216.502857 487.131429-482.742857 487.131429z m29.257143-292.571429c0 16.091429-13.165714 29.257143-29.257143 29.257143s-29.257143-13.165714-29.257143-29.257143v-277.942857c0-16.091429 13.165714-29.257143 29.257143-29.257143s29.257143 13.165714 29.257143 29.257143v277.942857z m-29.257143-351.085714c-16.091429 0-29.257143-13.165714-29.257143-29.257143v-14.628571c0-16.091429 13.165714-29.257143 29.257143-29.257143s29.257143 13.165714 29.257143 29.257143v14.628571c0 16.091429-13.165714 29.257143-29.257143 29.257143z"  horiz-adv-x="1024" />

    
    <glyph glyph-name="user" unicode="&#59310;" d="M858.5 132.4c-18.9 44.8-46.1 85-80.6 119.5-34.5 34.5-74.7 61.6-119.5 80.6-0.4 0.2-0.8 0.3-1.2 0.5C719.5 378 760 451.3 760 534c0 137-111 248-248 248S264 671 264 534c0-82.7 40.5-156 102.8-201.1-0.4-0.2-0.8-0.3-1.2-0.5-44.8-18.9-85-46-119.5-80.6-34.5-34.5-61.6-74.7-80.6-119.5C146.9 88.5 137 42 136-5.8c-0.1-4.5 3.5-8.2 8-8.2h60c4.4 0 7.9 3.5 8 7.8 2 77.2 33 149.5 87.8 204.3 56.7 56.7 132 87.9 212.2 87.9s155.5-31.2 212.2-87.9C779 143.3 810 71 812-6.2c0.1-4.4 3.6-7.8 8-7.8h60c4.5 0 8.1 3.7 8 8.2-1 47.8-10.9 94.3-29.5 138.2zM512 362c-45.9 0-89.1 17.9-121.6 50.4S340 488.1 340 534c0 45.9 17.9 89.1 50.4 121.6S466.1 706 512 706s89.1-17.9 121.6-50.4S684 579.9 684 534c0-45.9-17.9-89.1-50.4-121.6S557.9 362 512 362z"  horiz-adv-x="1024" />

    
    <glyph glyph-name="about" unicode="&#59263;" d="M951 754.2l-69 68.9c-28.6 28.5-75 28.5-103.6 0L692 737l172.7-172.2 86.3 86c28.6 28.6 28.6 74.8 0 103.4zM190.3 236.89999999999998L363 64.70000000000005l469.4 464.4-172.7 172.1-469.4-464.3zM51.6-76.5l276.3 109-171.3 170.8-105-279.8z m0 0"  horiz-adv-x="1024" />

    
    <glyph glyph-name="bag" unicode="&#58901;" d="M900.949333-64.725333a60.330667 60.330667 0 0 0-45.525333-20.608H168.533333a60.16 60.16 0 0 0-45.482666 20.608 65.28 65.28 0 0 0-15.957334 50.901333L177.28 597.333333H277.333333v-91.904A42.026667 42.026667 0 0 1 256 469.333333a42.666667 42.666667 0 1 1 85.333333 0 41.941333 41.941333 0 0 1-21.333333 36.096V597.333333h384v-91.904A42.026667 42.026667 0 0 1 682.666667 469.333333a42.666667 42.666667 0 1 1 85.333333 0 41.941333 41.941333 0 0 1-21.333333 36.096V597.333333h100.096l70.144-611.157333c2.133333-18.56-3.669333-37.12-15.957334-50.901333zM320 661.333333C320 767.189333 406.144 853.333333 512 853.333333c105.898667 0 192-86.144 192-192V640h-384v21.333333z m639.274667-670.250666L884.821333 640H746.666667v21.333333C746.666667 790.698667 641.408 896 512 896a234.965333 234.965333 0 0 1-234.666667-234.666667V640H139.221333L64.725333-8.917333a108.117333 108.117333 0 0 1 26.453334-84.224c19.84-22.186667 48-34.858667 77.397333-34.858667h686.848c29.397333 0 57.6 12.672 77.354667 34.858667a107.946667 107.946667 0 0 1 26.453333 84.224z"  horiz-adv-x="1024" />

    
    <glyph glyph-name="tobe-delivery" unicode="&#58887;" d="M714.947-61.190000000000055a20.219 20.219 0 0 0-19.334 14.28L581.371 324.86l-136.412-115.59 1.653-201.041a20.219 20.219 0 0 0-5.795-14.336l-33.772-34.376a20.214 20.214 0 0 0-33.28 6.876l-73.093 188.949-196.178 84.27a20.23 20.23 0 0 0-6.502 32.691l33.638 34.494a20.255 20.255 0 0 0 15.468 6.082l205.767-10.076 115.897 142.193-374.36 118.901a20.214 20.214 0 0 0-8.33 33.419l64.261 65.633a20.275 20.275 0 0 0 16.477 5.975l461.65-46.48 130.82 131.124c52.102 52.715 102.052 60.99 127.187 60.99h0.368c23.342 0 43.966-6.903 55.24-18.182 27.223-27.223 25.876-104.888-47.468-179.717-0.056-0.051-0.107-0.154-0.153-0.205L762.48 484.695l36.925-458.394a20.24 20.24 0 0 0-5.709-15.785l-64.307-65.628a20.23 20.23 0 0 0-14.443-6.077zM591.703 380.33500000000004a20.219 20.219 0 0 0 19.318-14.28l113.26-368.588 34.063 34.76-36.936 458.526a20.204 20.204 0 0 0 5.868 15.933l138.526 138.271c33.992 34.704 45.952 65.157 50.007 84.593 4.997 23.961-0.676 36.28-2.345 38.052-7.439 7.331-63.908 19.625-125.48-42.711a1.357 1.357 0 0 0-0.088-0.082L650.281 587.069a20.214 20.214 0 0 0-16.328-5.826l-461.522 46.469-34.473-35.21 371.385-117.94a20.214 20.214 0 0 0 9.554-32.046L377.759 269.35299999999995a20.237 20.237 0 0 0-16.666-7.424l-206.868 10.127-6.723-6.891 176.942-76.007a20.24 20.24 0 0 0 10.88-11.284l64.85-167.65 5.934 6.047-1.659 202.138a20.188 20.188 0 0 0 7.148 15.59l167.035 141.548a20.24 20.24 0 0 0 13.071 4.787z"  horiz-adv-x="1024" />

    
    <glyph glyph-name="address" unicode="&#59190;" d="M512 790.7c40.9 0 80.6-8 118-23.8 36.2-15.3 68.7-37.1 96.7-65s50-60.3 65.4-96.4c16-37.3 24.2-77 24.3-117.9 0.2-34.9-13.3-80.9-40-136.7-22.9-47.9-55.3-102.4-96.3-162-72.9-105.9-149.9-194.4-164.6-211-0.3-0.4-0.8-0.6-1.3-0.6s-1 0.2-1.3 0.6c-14.9 16.5-92.7 104.3-166.5 209.5-41.5 59.2-74.4 113.4-97.7 161.1-27.2 55.6-41 101.5-41.2 136.4-0.7 167.9 135.2 305 303 305.8h1.5m0 38h-1.5c-188.8-0.8-341.7-155.1-340.9-343.9 0.8-177.2 282.9-496.5 315.1-532.3 7.5-8.4 18.3-13.2 29.6-13.2h0.2c11.4 0 22.2 5 29.7 13.5 31.9 36.1 311.1 357.9 310.3 535.1C853.6 676.1 700.1 828.7 512 828.7zM512.1 573.6c54.7 0 99.3-44.5 99.6-99.1 0.2-54.9-44.2-99.8-99.2-100h-0.5c-54.7 0-99.4 44.5-99.6 99.2-0.1 26.5 10.1 51.6 28.9 70.5 18.8 18.9 43.7 29.4 70.3 29.5l0.5-0.1m0 38h-0.6c-75.9-0.3-137.3-62.3-137-138.2 0.3-75.7 62-137 137.6-137h0.6c75.9 0.3 137.3 62.3 137 138.2-0.4 75.6-62 137-137.6 137z"  horiz-adv-x="1024" />

    
    <glyph glyph-name="qianjinxiayige1" unicode="&#58885;" d="M328.96 392.32l318.08-320c12.8-12.8 33.28-12.8 45.44 0 12.8 12.8 12.8 33.28 0 45.44l-293.12 295.04 303.36 298.88c12.8 12.8 12.8 33.28 0 45.44-12.8 12.8-33.28 12.8-46.08 1e-8l-318.72-314.24C324.48 431.36 311.68 410.88 328.96 392.32z"  horiz-adv-x="1024" />

    
    <glyph glyph-name="back" unicode="&#59178;" d="M472.583918 624.733208V896L0 423.474519l472.583918-472.583918v271.149917c341.274896 0 577.596074-105.187468 752.616333-350.040518-70.124979 350.040518-271.266792 682.608229-752.616333 752.616333"  horiz-adv-x="1225" />

    
    <glyph glyph-name="than" unicode="&#58883;" d="M298.667 134.91200000000003v-49.579l426.667 257.195v43.392l-426.667 254.08v-52.694l389.035-223.104-389.035-229.291z"  horiz-adv-x="1024" />

    
    <glyph glyph-name="tobe-receive" unicode="&#59123;" d="M896.1 732.2H128c-15.5 0-28-12.5-28-28v-192c0-15.5 12.5-28 28-28h64.5v-419.9c0-15.5 12.5-28 28-28h291.6c1.3 0 2.6 0.1 3.9 0.3l0.3-0.3c41.4-41.5 96.5-64.3 155.1-64.3s113.7 22.8 155.2 64.3c41.4 41.4 64.2 96.5 64.2 155.1 0 56.1-21 109.1-59.2 149.8v143h64.6c15.4 0 28 12.5 27.9 28v192c0 15.5-12.5 28-28 28zM671.4 28C581.3 28 508 101.29999999999995 508 191.39999999999998s73.3 163.4 163.4 163.4 163.4-73.3 163.4-163.4S761.5 28 671.4 28z m104.2 356.6c-31.6 17.1-67.2 26.2-104.2 26.2-58.6 0-113.7-22.9-155.1-64.3C474.8 305.1 452 250 452 191.39999999999998c0-35 8.2-68.8 23.6-99.1H248.5V484.2h527.1v-99.6z m92.5 155.6H156v136h712.1v-136zM750 185.39999999999998h-63.6V272c0 15.5-12.5 28-28 28s-28-12.5-28-28v-114.6c0-15.5 12.5-28 28-28H750c15.5 0 28 12.5 28 28s-12.5 28-28 28z"  horiz-adv-x="1024" />

    
    <glyph glyph-name="phone" unicode="&#58884;" d="M772.654545-4.654544999999985l-13.963636 4.654545C165.236364 181.52727300000004 128 630.6909089999999 125.672727 635.345455V663.272727l155.927273 116.363637 160.581818-209.454546-81.454545-90.763636c27.927273-95.418182 174.545455-200.145455 242.036363-242.036364l109.381819 74.472727 190.836363-169.890909-130.327273-146.618181zM172.218182 637.672727c2.327273-25.6 44.218182-416.581818 586.472727-588.8l83.781818 88.436364-128 114.036364-104.727272-69.818182-11.636364 6.981818c-9.309091 6.981818-249.018182 146.618182-279.272727 290.909091l-2.327273 11.636363 72.145454 79.127273L279.272727 712.145455l-107.054545-74.472728z"  horiz-adv-x="1024" />

    
    <glyph glyph-name="home" unicode="&#58880;" d="M513.3 703.2l320.1-292.6c-16.3-2-31.6-8.7-43.8-19.4l-0.2-0.2-0.2-0.2c-11.8-10.5-25.8-29-25.8-58.1v-272.5H646.2V176c0 43.5-36 78.8-80.3 78.8H460.3c-44.3 0-80.3-35.4-80.3-78.8v-115.7H264.2v273c0 40-30.5 73.2-69.9 78.2l319 291.7m0 64.8c-11.2 0-22.4-3.8-30.4-11.3L114.6 420c-13.2-11.3-17-28.3-9.9-43.8 7.1-15.1 22.2-24 39.6-24h39.6c11.3 0 20.3-8.5 20.3-18.8V40c0-21.7 19.3-39.6 42.9-39.6h150c23.6 0 42.9 17.9 42.9 39.6V176c0 10.4 9 18.8 20.3 18.8h105.6c11.3 0 20.3-8.5 20.3-18.8v-136.1c0-21.7 19.3-39.6 43.4-39.6h150c24.1 0 43.9 17.9 43.9 39.6v293c0 5.6 1.4 9.4 5.7 13.2 3.8 3.3 9 5.2 14.6 5.2H881c17.5 0 32.5 9.4 39.6 24 8 15.5 4.2 33-8 44.3L543.8 756.7c-8 7.5-19.3 11.3-30.5 11.3z"  horiz-adv-x="1024" />

    


  </font>
</defs>
</svg>
